<svg xmlns="http://www.w3.org/2000/svg" xmlns:xlink="http://www.w3.org/1999/xlink" version="1.1" x="0px" y="0px" viewBox="NaN NaN NaN 187.5"><g><g><g><path d="M147.877,73.881 C141.498,57.86 106.876,45.227 68.077,44.388 C83.976,26.373 100.27,16.367 109.56,17.723 C118.474,19.035 118.221,30.842 117.282,37.762 C117.053,39.447 118.233,41 119.919,41.231 C121.556,41.451 123.157,40.278 123.386,38.593 C125.51,22.977 120.797,13.147 110.451,11.627 C97.37,9.718 77.61,23.116 60.023,44.365 C52.803,44.522 46.018,45.102 39.794,46.065 C37.435,32.391 38.377,21.647 42.399,16.595 C48.027,9.548 58.199,15.704 63.767,19.995 C65.109,21.036 67.059,20.789 68.088,19.435 C69.13,18.087 68.883,16.153 67.535,15.115 C55.003,5.456 44.09,4.587 37.578,12.756 C32.171,19.546 31.101,32.082 33.712,47.151 C19.155,50.186 8.42,55.516 3.684,62.495 C0.795,66.75 0.253,71.474 2.119,76.161 C4.009,80.903 8.247,85.365 14.717,89.424 C16.168,90.327 18.064,89.897 18.966,88.45 C19.869,87.008 19.436,85.107 17.991,84.201 C12.731,80.903 9.221,77.335 7.849,73.881 C6.742,71.103 7.049,68.513 8.782,65.956 C12.096,61.072 21.015,56.176 34.933,53.232 C36.354,59.455 38.334,66.002 40.862,72.7 C27.64,96.734 22.802,118.538 28.41,130.158 C30.661,134.819 34.508,137.675 39.546,138.415 C40.425,138.544 41.333,138.61 42.267,138.61 C47.774,138.61 54.178,136.36 61.359,131.904 C62.804,131.007 63.249,129.105 62.352,127.661 C61.455,126.211 59.547,125.787 58.109,126.668 C51.078,131.034 44.999,132.987 40.437,132.319 C37.439,131.877 35.32,130.294 33.96,127.481 C30.33,119.961 32.305,102.77 43.857,80.151 C46.686,86.719 50.004,93.35 53.781,99.862 C68.552,125.323 86.152,141.761 99.706,142.757 C100.14,142.79 100.567,142.805 100.989,142.805 C105.599,142.805 109.53,140.912 112.419,137.286 C121.821,125.471 118.245,95.56 103.727,64.547 C102.999,63.004 101.157,62.342 99.628,63.064 C98.088,63.783 97.419,65.618 98.142,67.159 C111.281,95.216 115.344,123.714 107.592,133.447 C105.72,135.803 103.258,136.82 100.158,136.613 C90.834,135.926 74.529,123.341 59.114,96.769 C54.474,88.77 50.686,80.801 47.642,73.118 C47.817,72.813 47.945,72.533 48.123,72.226 C52.766,64.222 57.807,56.969 62.968,50.501 C63.327,50.499 63.64,50.469 64.001,50.469 C104.63,50.469 137.212,63.753 142.147,76.158 C144.862,82.982 138.325,88.046 132.366,91.092 C130.849,91.868 130.247,93.724 131.024,95.238 C131.572,96.303 132.649,96.917 133.768,96.917 C134.244,96.917 134.72,96.808 135.171,96.58 C146.649,90.712 151.278,82.441 147.877,73.881 z M44.887,65.681 C43.294,60.993 42.005,56.469 41.016,52.166 C45.289,51.504 49.928,51.022 54.965,50.755 C51.443,55.439 48.074,60.454 44.887,65.681 z" fill="#000000"/><path d="M87.324,75.021 C87.324,81.828 81.805,87.347 74.998,87.347 C68.191,87.347 62.672,81.828 62.672,75.021 C62.672,68.214 68.191,62.695 74.998,62.695 C81.805,62.695 87.324,68.214 87.324,75.021 z" fill="#000000"/></g><path d="M62.671,75.021 C62.671,81.818 68.203,87.345 74.998,87.345 C81.794,87.345 87.325,81.818 87.325,75.021 C87.325,68.224 81.794,62.697 74.998,62.697 C68.203,62.697 62.671,68.224 62.671,75.021 z M147.877,73.881 C141.498,57.86 106.876,45.227 68.077,44.388 C83.976,26.373 100.27,16.367 109.56,17.723 C118.474,19.035 118.221,30.842 117.282,37.762 C117.053,39.447 118.233,41 119.919,41.231 C121.556,41.451 123.157,40.278 123.386,38.593 C125.51,22.977 120.797,13.147 110.451,11.627 C97.37,9.718 77.61,23.116 60.023,44.365 C52.803,44.522 46.018,45.102 39.794,46.065 C37.435,32.391 38.377,21.647 42.399,16.595 C48.027,9.548 58.199,15.704 63.767,19.995 C65.109,21.036 67.059,20.789 68.088,19.435 C69.13,18.087 68.883,16.153 67.535,15.115 C55.003,5.456 44.09,4.587 37.578,12.756 C32.171,19.546 31.101,32.082 33.712,47.151 C19.155,50.186 8.42,55.516 3.684,62.495 C0.795,66.75 0.253,71.474 2.119,76.161 C4.009,80.903 8.247,85.365 14.717,89.424 C16.168,90.327 18.064,89.897 18.966,88.45 C19.869,87.008 19.436,85.107 17.991,84.201 C12.731,80.903 9.221,77.335 7.849,73.881 C6.742,71.103 7.049,68.513 8.782,65.956 C12.096,61.072 21.015,56.176 34.933,53.232 C36.354,59.455 38.334,66.002 40.862,72.7 C27.64,96.734 22.802,118.538 28.41,130.158 C30.661,134.819 34.508,137.675 39.546,138.415 C40.425,138.544 41.333,138.61 42.267,138.61 C47.774,138.61 54.178,136.36 61.359,131.904 C62.804,131.007 63.249,129.105 62.352,127.661 C61.455,126.211 59.547,125.787 58.109,126.668 C51.078,131.034 44.999,132.987 40.437,132.319 C37.439,131.877 35.32,130.294 33.96,127.481 C30.33,119.961 32.305,102.77 43.857,80.151 C46.686,86.719 50.004,93.35 53.781,99.862 C68.552,125.323 86.152,141.761 99.706,142.757 C100.14,142.79 100.567,142.805 100.989,142.805 C105.599,142.805 109.53,140.912 112.419,137.286 C121.821,125.471 118.245,95.56 103.727,64.547 C102.999,63.004 101.157,62.342 99.628,63.064 C98.088,63.783 97.419,65.618 98.142,67.159 C111.281,95.216 115.344,123.714 107.592,133.447 C105.72,135.803 103.258,136.82 100.158,136.613 C90.834,135.926 74.529,123.341 59.114,96.769 C54.474,88.77 50.686,80.801 47.642,73.118 C47.817,72.813 47.945,72.533 48.123,72.226 C52.766,64.222 57.807,56.969 62.968,50.501 C63.327,50.499 63.64,50.469 64.001,50.469 C104.63,50.469 137.212,63.753 142.147,76.158 C144.862,82.982 138.325,88.046 132.366,91.092 C130.849,91.868 130.247,93.724 131.024,95.238 C131.572,96.303 132.649,96.917 133.768,96.917 C134.244,96.917 134.72,96.808 135.171,96.58 C146.649,90.712 151.278,82.441 147.877,73.881 z M44.887,65.681 C43.294,60.993 42.005,56.469 41.016,52.166 C45.289,51.504 49.928,51.022 54.965,50.755 C51.443,55.439 48.074,60.454 44.887,65.681 z" fill="#000000"/></g></g><text x="NaN" y="NaN" fill="#000000" font-size="5px" font-weight="bold" font-family="'Helvetica Neue', Helvetica, Arial-Unicode, Arial, Sans-serif">Created by Anna Sophie</text><text x="NaN" y="NaN" fill="#000000" font-size="5px" font-weight="bold" font-family="'Helvetica Neue', Helvetica, Arial-Unicode, Arial, Sans-serif">from the Noun Project</text></svg>